<?xml version="1.0" encoding="utf-8"?>
<!-- Generator: Adobe Illustrator 16.0.0, SVG Export Plug-In . SVG Version: 6.00 Build 0)  -->
<!DOCTYPE svg PUBLIC "-//W3C//DTD SVG 1.1//EN" "http://www.w3.org/Graphics/SVG/1.1/DTD/svg11.dtd">
<svg version="1.1" id="Layer_1" xmlns="http://www.w3.org/2000/svg" xmlns:xlink="http://www.w3.org/1999/xlink" x="0px" y="0px"
	 width="195px" height="195px" viewBox="0 0 195 195" enable-background="new 0 0 195 195" xml:space="preserve">
<g>
	
		<linearGradient id="SVGID_1_" gradientUnits="userSpaceOnUse" x1="-164.127" y1="350.6094" x2="-74.2217" y2="350.6094" gradientTransform="matrix(1 0 0 1 168 -301.5469)">
		<stop  offset="0" style="stop-color:#32297C"/>
		<stop  offset="1" style="stop-color:#282761"/>
	</linearGradient>
	<rect x="3.873" y="4.384" opacity="0.95" fill="url(#SVGID_1_)" enable-background="new    " width="89.905" height="89.357"/>
	<g>
		<g>
			
				<linearGradient id="SVGID_2_" gradientUnits="userSpaceOnUse" x1="-496.2046" y1="202.792" x2="-397.61" y2="299.1178" gradientTransform="matrix(1 0 0 1 495.6309 -202.2051)">
				<stop  offset="0" style="stop-color:#95C8FD"/>
				<stop  offset="1" style="stop-color:#73B4F4"/>
			</linearGradient>
			<path fill="url(#SVGID_2_)" d="M0,0v97.5h97.448V0H0z M89.702,89.773H7.951V7.934H89.7L89.702,89.773L89.702,89.773z"/>
		</g>
	</g>
	<g>
		<g opacity="0.1">
			<path d="M25.615,28.738c2.629-0.49,6.276-0.857,11.236-0.857c5.378,0,9.323,1.162,11.893,3.367
				c2.391,2.02,3.944,5.263,3.944,9.119c0,3.917-1.194,7.161-3.467,9.364c-2.928,2.999-7.529,4.407-12.729,4.407
				c-1.375,0-2.629-0.062-3.586-0.246v15.546h-7.292V28.738z M32.907,47.957c0.897,0.244,2.092,0.306,3.586,0.306
				c5.499,0,8.845-2.755,8.845-7.59c0-4.59-3.108-7.037-8.188-7.037c-2.03,0-3.464,0.184-4.244,0.367L32.907,47.957L32.907,47.957z"
				/>
		</g>
		<g>
			
				<linearGradient id="SVGID_3_" gradientUnits="userSpaceOnUse" x1="-142.6431" y1="349.3721" x2="-94.1232" y2="349.3721" gradientTransform="matrix(1 0 0 1 168 -301.5469)">
				<stop  offset="0" style="stop-color:#95C8FD"/>
				<stop  offset="1" style="stop-color:#73B4F4"/>
			</linearGradient>
			<path fill="url(#SVGID_3_)" d="M25.615,27.903c2.629-0.489,6.276-0.856,11.236-0.856c5.378,0,9.323,1.162,11.893,3.365
				c2.391,2.02,3.944,5.264,3.944,9.119c0,3.918-1.194,7.162-3.467,9.365c-2.928,2.998-7.529,4.406-12.729,4.406
				c-1.375,0-2.629-0.062-3.586-0.244v15.545h-7.292V27.903z M32.907,47.121c0.897,0.245,2.092,0.307,3.586,0.307
				c5.499,0,8.845-2.754,8.845-7.59c0-4.589-3.108-7.038-8.188-7.038c-2.03,0-3.464,0.184-4.244,0.368L32.907,47.121L32.907,47.121z
				"/>
		</g>
	</g>
	<g>
		<g opacity="0.1">
			<path d="M54.957,62.522c1.674,1.041,4.842,2.142,7.472,2.142c3.227,0,4.66-1.347,4.66-3.305c0-2.02-1.193-3.061-4.779-4.346
				c-5.679-2.02-8.07-5.202-8.01-8.689c0-5.265,4.243-9.365,10.998-9.365c3.227,0,6.036,0.857,7.708,1.775l-1.433,5.324
				c-1.256-0.734-3.588-1.713-6.156-1.713c-2.63,0-4.064,1.285-4.064,3.121c0,1.897,1.375,2.813,5.082,4.16
				c5.258,1.959,7.709,4.715,7.769,9.119c0,5.387-4.123,9.365-11.834,9.365c-3.525,0-6.693-0.918-8.845-2.143L54.957,62.522z"/>
		</g>
		<g>
			
				<linearGradient id="SVGID_4_" gradientUnits="userSpaceOnUse" x1="-142.6436" y1="355.248" x2="-94.122" y2="355.248" gradientTransform="matrix(1 0 0 1 168 -301.5469)">
				<stop  offset="0" style="stop-color:#95C8FD"/>
				<stop  offset="1" style="stop-color:#73B4F4"/>
			</linearGradient>
			<path fill="url(#SVGID_4_)" d="M54.957,61.688c1.674,1.041,4.842,2.141,7.472,2.141c3.227,0,4.66-1.346,4.66-3.304
				c0-2.021-1.193-3.06-4.779-4.347c-5.679-2.02-8.07-5.201-8.01-8.688c0-5.265,4.243-9.365,10.998-9.365
				c3.227,0,6.036,0.856,7.708,1.774l-1.433,5.325c-1.256-0.735-3.588-1.714-6.156-1.714c-2.63,0-4.064,1.285-4.064,3.121
				c0,1.897,1.375,2.815,5.082,4.162c5.258,1.957,7.709,4.713,7.769,9.119c0,5.387-4.123,9.364-11.834,9.364
				c-3.525,0-6.693-0.918-8.845-2.144L54.957,61.688z"/>
		</g>
	</g>
</g>
<g>
	
		<linearGradient id="SVGID_5_" gradientUnits="userSpaceOnUse" x1="-66.542" y1="305.793" x2="23.0886" y2="395.4236" gradientTransform="matrix(1 0 0 1 168 -301.5469)">
		<stop  offset="0" style="stop-color:#5E4421"/>
		<stop  offset="1" style="stop-color:#373100"/>
	</linearGradient>
	<rect x="101.321" y="4.383" opacity="0.95" fill="url(#SVGID_5_)" enable-background="new    " width="89.904" height="89.356"/>
	<g>
		<g>
			
				<linearGradient id="SVGID_6_" gradientUnits="userSpaceOnUse" x1="-398.7563" y1="202.791" x2="-300.161" y2="299.1175" gradientTransform="matrix(1 0 0 1 495.6309 -202.2051)">
				<stop  offset="0" style="stop-color:#FDC45E"/>
				<stop  offset="1" style="stop-color:#FC9C0D"/>
			</linearGradient>
			<path fill="url(#SVGID_6_)" d="M97.448,0v97.5h97.449V0H97.448z M187.149,89.773h-81.75V7.934h81.75V89.773L187.149,89.773z"/>
		</g>
	</g>
	<g>
		<g opacity="0.1">
			<path d="M132.957,57.856l-3.47,11.69h-7.59l12.909-41.251h9.382l13.09,41.251h-7.889l-3.646-11.69H132.957z M144.487,52.166
				l-3.166-10.16c-0.776-2.509-1.435-5.323-2.03-7.711h-0.119c-0.599,2.388-1.194,5.265-1.913,7.711l-3.107,10.16H144.487z"/>
		</g>
		<g>
			
				<linearGradient id="SVGID_7_" gradientUnits="userSpaceOnUse" x1="-46.8022" y1="349.6328" x2="-0.6259" y2="349.6328" gradientTransform="matrix(1 0 0 1 168 -301.5469)">
				<stop  offset="0" style="stop-color:#FDC45E"/>
				<stop  offset="1" style="stop-color:#FC9C0D"/>
			</linearGradient>
			<path fill="url(#SVGID_7_)" d="M132.957,57.022l-3.47,11.688h-7.59l12.909-41.25h9.382l13.09,41.25h-7.889l-3.646-11.688H132.957
				z M144.487,51.33l-3.166-10.16c-0.776-2.509-1.435-5.323-2.03-7.71h-0.119c-0.599,2.387-1.194,5.263-1.913,7.71l-3.107,10.16
				H144.487z"/>
		</g>
	</g>
	<g>
		<g opacity="0.1">
			<path d="M167.976,31.418c0,2.264-1.615,4.038-4.185,4.038c-2.45,0-4.063-1.774-4.063-4.038c0-2.326,1.674-4.102,4.123-4.102
				C166.36,27.316,167.914,29.091,167.976,31.418z M160.146,69.547V39.74h7.411v29.807H160.146L160.146,69.547z"/>
		</g>
		<g>
			
				<linearGradient id="SVGID_8_" gradientUnits="userSpaceOnUse" x1="-46.8042" y1="349.1445" x2="-0.6245" y2="349.1445" gradientTransform="matrix(1 0 0 1 168 -301.5469)">
				<stop  offset="0" style="stop-color:#FDC45E"/>
				<stop  offset="1" style="stop-color:#FC9C0D"/>
			</linearGradient>
			<path fill="url(#SVGID_8_)" d="M167.976,30.583c0,2.265-1.615,4.039-4.185,4.039c-2.45,0-4.063-1.774-4.063-4.039
				c0-2.326,1.674-4.101,4.123-4.101C166.36,26.481,167.914,28.255,167.976,30.583z M160.146,68.711V38.906h7.411v29.807h-7.411
				V68.711z"/>
		</g>
	</g>
</g>
<g>
	
		<linearGradient id="SVGID_9_" gradientUnits="userSpaceOnUse" x1="-163.9893" y1="403.2939" x2="-74.3579" y2="492.9253" gradientTransform="matrix(1 0 0 1 168 -301.5469)">
		<stop  offset="0" style="stop-color:#58223A"/>
		<stop  offset="1" style="stop-color:#412734"/>
	</linearGradient>
	<rect x="3.873" y="101.885" opacity="0.95" fill="url(#SVGID_9_)" enable-background="new    " width="89.907" height="89.356"/>
	<g>
		<g>
			
				<linearGradient id="SVGID_10_" gradientUnits="userSpaceOnUse" x1="-211.6895" y1="407.6572" x2="-113.0941" y2="503.9836" gradientTransform="matrix(1 0 0 1 211.1157 -309.5703)">
				<stop  offset="0" style="stop-color:#E955AB"/>
				<stop  offset="1" style="stop-color:#E33594"/>
			</linearGradient>
			<path fill="url(#SVGID_10_)" d="M0,97.5V195h97.448V97.5H0L0,97.5z M89.702,187.275H7.951v-81.843h81.751V187.275z"/>
		</g>
	</g>
	<g>
		<g opacity="0.1">
			<path d="M36.182,125.666v41.252h-7.351v-41.252H36.182L36.182,125.666z"/>
		</g>
		<g>
			<g>
				
					<linearGradient id="SVGID_11_" gradientUnits="userSpaceOnUse" x1="-139.2373" y1="447.0039" x2="-99.4792" y2="447.0039" gradientTransform="matrix(1 0 0 1 168 -301.5469)">
					<stop  offset="0" style="stop-color:#E955AB"/>
					<stop  offset="1" style="stop-color:#E33594"/>
				</linearGradient>
				<path fill="url(#SVGID_11_)" d="M36.182,124.832v41.25h-7.351v-41.25H36.182z"/>
			</g>
		</g>
	</g>
	<g>
		<g opacity="0.1">
			<path d="M68.196,123.463v35.067c0,3.062,0.108,6.365,0.219,8.388h-6.02l-0.271-4.715h-0.111
				c-1.587,3.307-4.812,5.387-8.699,5.387c-6.346,0-11.379-6.06-11.379-15.239c-0.056-9.978,5.525-15.912,11.926-15.912
				c3.668,0,6.293,1.713,7.496,3.916h0.108v-16.892H68.196L68.196,123.463z M61.466,149.537c0-0.615-0.055-1.349-0.163-1.957
				c-0.604-2.94-2.735-5.326-5.8-5.326c-4.322,0-6.73,4.283-6.73,9.854c0,5.445,2.408,9.424,6.676,9.424
				c2.736,0,5.142-2.08,5.799-5.324c0.164-0.672,0.218-1.408,0.218-2.203L61.466,149.537L61.466,149.537z"/>
		</g>
		<g>
			
				<linearGradient id="SVGID_12_" gradientUnits="userSpaceOnUse" x1="-139.2383" y1="446.2383" x2="-99.4749" y2="446.2383" gradientTransform="matrix(1 0 0 1 168 -301.5469)">
				<stop  offset="0" style="stop-color:#E955AB"/>
				<stop  offset="1" style="stop-color:#E33594"/>
			</linearGradient>
			<path fill="url(#SVGID_12_)" d="M68.196,122.627v35.07c0,3.061,0.108,6.364,0.219,8.385h-6.02l-0.271-4.715h-0.111
				c-1.587,3.307-4.812,5.389-8.699,5.389c-6.346,0-11.379-6.061-11.379-15.24c-0.056-9.977,5.525-15.914,11.926-15.914
				c3.668,0,6.293,1.715,7.496,3.918h0.108v-16.893H68.196L68.196,122.627z M61.466,148.7c0-0.612-0.055-1.347-0.163-1.958
				c-0.604-2.938-2.735-5.324-5.8-5.324c-4.322,0-6.73,4.283-6.73,9.854c0,5.447,2.408,9.425,6.676,9.425
				c2.736,0,5.142-2.08,5.799-5.325c0.164-0.672,0.218-1.406,0.218-2.203L61.466,148.7L61.466,148.7z"/>
		</g>
	</g>
</g>
<g>
	
		<linearGradient id="SVGID_13_" gradientUnits="userSpaceOnUse" x1="-66.438" y1="403.292" x2="23.194" y2="492.924" gradientTransform="matrix(1 0 0 1 168 -301.5469)">
		<stop  offset="0" style="stop-color:#524719"/>
		<stop  offset="1" style="stop-color:#303423"/>
	</linearGradient>
	
		<rect x="101.424" y="101.883" opacity="0.95" fill="url(#SVGID_13_)" enable-background="new    " width="89.907" height="89.356"/>
	<g>
		<g>
			
				<linearGradient id="SVGID_14_" gradientUnits="userSpaceOnUse" x1="-398.6538" y1="300.291" x2="-300.0585" y2="396.6175" gradientTransform="matrix(1 0 0 1 495.6309 -202.2051)">
				<stop  offset="0" style="stop-color:#E4ED08"/>
				<stop  offset="1" style="stop-color:#E6D104"/>
			</linearGradient>
			<path fill="url(#SVGID_14_)" d="M97.551,97.5V195H195V97.5H97.551L97.551,97.5z M187.253,187.273h-81.752v-81.841h81.752V187.273
				L187.253,187.273z"/>
		</g>
	</g>
	<g>
		<g opacity="0.1">
			<path d="M114.575,125.225h23.755v6.312h-16.24v11.631h15.14v6.315h-15.14v17.883h-7.515V125.225L114.575,125.225z"/>
		</g>
		<g>
			
				<linearGradient id="SVGID_15_" gradientUnits="userSpaceOnUse" x1="-53.5303" y1="447.0078" x2="11.5099" y2="447.0078" gradientTransform="matrix(1 0 0 1 168 -301.5469)">
				<stop  offset="0" style="stop-color:#E4ED08"/>
				<stop  offset="1" style="stop-color:#E6D104"/>
			</linearGradient>
			<path fill="url(#SVGID_15_)" d="M114.575,124.389h23.755v6.314h-16.24v11.629h15.14v6.317h-15.14v17.883h-7.515V124.389
				L114.575,124.389z"/>
		</g>
	</g>
	<g>
		<g opacity="0.1">
			<path d="M146.385,136.918l2.886,13.818c0.623,3.251,1.243,6.564,1.754,9.878h0.112c0.564-3.313,1.47-6.69,2.263-9.815
				l3.562-13.881h5.654l3.447,13.506c0.851,3.564,1.584,6.879,2.205,10.192h0.115c0.452-3.313,1.073-6.628,1.809-10.192
				l3.054-13.506h6.842l-8.651,30.451h-6.445l-3.279-12.382c-0.848-3.188-1.471-6.063-2.092-9.753h-0.113
				c-0.564,3.752-1.3,6.753-2.09,9.753l-3.508,12.382h-6.504l-8.141-30.451H146.385L146.385,136.918z"/>
		</g>
		<g>
			
				<linearGradient id="SVGID_16_" gradientUnits="userSpaceOnUse" x1="-53.5303" y1="452.8545" x2="11.5062" y2="452.8545" gradientTransform="matrix(1 0 0 1 168 -301.5469)">
				<stop  offset="0" style="stop-color:#E4ED08"/>
				<stop  offset="1" style="stop-color:#E6D104"/>
			</linearGradient>
			<path fill="url(#SVGID_16_)" d="M146.385,136.082l2.886,13.818c0.623,3.251,1.243,6.564,1.754,9.879h0.112
				c0.564-3.314,1.47-6.689,2.263-9.816l3.562-13.879h5.654l3.447,13.506c0.851,3.562,1.584,6.877,2.205,10.19h0.115
				c0.452-3.313,1.073-6.628,1.809-10.19l3.054-13.506h6.842l-8.651,30.449h-6.445l-3.279-12.379
				c-0.848-3.189-1.471-6.066-2.092-9.756h-0.113c-0.564,3.752-1.3,6.755-2.09,9.756l-3.508,12.379h-6.504l-8.141-30.449h7.121
				L146.385,136.082L146.385,136.082z"/>
		</g>
	</g>
</g>
</svg>
