<?xml version="1.0" encoding="utf-8"?>
<!-- Generator: Adobe Illustrator 16.0.0, SVG Export Plug-In . SVG Version: 6.00 Build 0)  -->
<!DOCTYPE svg PUBLIC "-//W3C//DTD SVG 1.1//EN" "http://www.w3.org/Graphics/SVG/1.1/DTD/svg11.dtd">
<svg version="1.1" id="Layer_2" xmlns="http://www.w3.org/2000/svg" xmlns:xlink="http://www.w3.org/1999/xlink" x="0px" y="0px"
	 width="220px" height="220px" viewBox="0 0 220 220" enable-background="new 0 0 220 220" xml:space="preserve">
<g>
	
		<linearGradient id="SVGID_1_" gradientUnits="userSpaceOnUse" x1="768" y1="-812.0825" x2="768" y2="-978.8633" gradientTransform="matrix(1 0 0 -1 -658 -759)">
		<stop  offset="0" style="stop-color:#F3F4F5"/>
		<stop  offset="0.3145" style="stop-color:#E7E7E7"/>
		<stop  offset="0.9005" style="stop-color:#C5C3C4"/>
		<stop  offset="0.9939" style="stop-color:#C0BEBE"/>
	</linearGradient>
	<path fill="url(#SVGID_1_)" d="M169.986,116.868c-0.229-27.798,22.699-41.167,23.791-41.812
		c-12.922-18.918-33.074-21.507-40.271-21.801c-17.094-1.726-33.37,10.07-42.043,10.07c-8.683,0-22.074-9.831-36.274-9.558
		C56.522,54.03,39.33,64.614,29.717,81.304c-19.377,33.62-4.948,83.439,13.938,110.735c9.219,13.347,20.229,28.345,34.68,27.81
		c13.948-0.546,19.191-9.001,36.045-9.001c16.8,0,21.552,9.001,36.265,8.728c14.963-0.272,24.477-13.62,33.629-27.012
		c10.596-15.488,14.9-30.485,15.205-31.261C199.141,161.204,170.283,150.14,169.986,116.868z"/>
	<path fill="#F6F7F8" d="M142.309,35.199c7.68-9.295,12.855-22.228,11.426-35.095c-11.055,0.448-24.434,7.373-32.375,16.668
		c-7.111,8.225-13.336,21.387-11.655,34.003C122.037,51.714,134.641,44.495,142.309,35.199z"/>
	<path fill="#C0BEBE" d="M78.312,219.881c13.938-0.546,19.192-9,36.045-9c16.799,0,21.551,9,36.264,8.717
		c14.963-0.263,24.479-13.61,33.633-27.002c4.641-6.771,8.092-13.467,10.473-18.918c-8.092-0.131-17.127-0.219-24.303-0.219
		c-17.662,0-24.674-3.483-57.9-3.483c-33.271,0-39.421,4.468-55.837,5.69c-7.526,0.579-15.664,0.622-22.25,0.491
		c2.829,5.833,5.942,11.195,9.197,15.882C52.863,205.409,63.873,220.427,78.312,219.881z"/>
</g>
</svg>
