<?xml version="1.0" encoding="utf-8"?>
<!-- Generator: Adobe Illustrator 16.0.0, SVG Export Plug-In . SVG Version: 6.00 Build 0)  -->
<!DOCTYPE svg PUBLIC "-//W3C//DTD SVG 1.1//EN" "http://www.w3.org/Graphics/SVG/1.1/DTD/svg11.dtd">
<svg version="1.1" id="Layer_1" xmlns="http://www.w3.org/2000/svg" xmlns:xlink="http://www.w3.org/1999/xlink" x="0px" y="0px"
	 width="187px" height="187px" viewBox="0 0 187 187" enable-background="new 0 0 187 187" xml:space="preserve">
<g id="New_Symbol_102">
	
		<radialGradient id="SVGID_1_" cx="14558.5" cy="40554.2031" r="81.3633" gradientTransform="matrix(-1 0 0 -0.278 14652 11297.5215)" gradientUnits="userSpaceOnUse">
		<stop  offset="0" style="stop-color:#B3B3B3"/>
		<stop  offset="1" style="stop-color:#808080"/>
	</radialGradient>
	<path fill="url(#SVGID_1_)" d="M175.222,23.453c0,12.883-36.586,23.349-81.722,23.349c-45.136,0-81.722-10.466-81.722-23.349
		c0-12.872,36.585-23.349,81.722-23.349C138.636,0.104,175.222,10.582,175.222,23.453z"/>
	<linearGradient id="SVGID_2_" gradientUnits="userSpaceOnUse" x1="11.7783" y1="114.5234" x2="175.2217" y2="114.5234">
		<stop  offset="0" style="stop-color:#666666"/>
		<stop  offset="0.0481" style="stop-color:#757575"/>
		<stop  offset="0.182" style="stop-color:#9B9B9B"/>
		<stop  offset="0.3062" style="stop-color:#B6B6B6"/>
		<stop  offset="0.4161" style="stop-color:#C6C6C6"/>
		<stop  offset="0.5" style="stop-color:#CCCCCC"/>
		<stop  offset="0.5839" style="stop-color:#C6C6C6"/>
		<stop  offset="0.6938" style="stop-color:#B6B6B6"/>
		<stop  offset="0.818" style="stop-color:#9B9B9B"/>
		<stop  offset="0.9519" style="stop-color:#757575"/>
		<stop  offset="1" style="stop-color:#666666"/>
	</linearGradient>
	<path fill="url(#SVGID_2_)" d="M93.5,58.477c-7.342,0-58.384-0.627-81.722-16.326v28C11.778,83.034,48.364,93.5,93.5,93.5
		c45.136,0,81.722-10.466,81.722-23.349v-28C151.872,57.85,100.842,58.477,93.5,58.477z M93.5,105.175
		c-7.342,0-58.384-0.627-81.722-16.326v28c0,12.884,36.585,23.35,81.722,23.35c45.136,0,81.722-10.466,81.722-23.35v-28
		C151.872,104.548,100.842,105.175,93.5,105.175z M93.5,151.872c-7.342,0-58.384-0.627-81.722-16.325v28
		c0,12.883,36.585,23.35,81.722,23.35c45.136,0,81.722-10.467,81.722-23.35v-28C151.872,151.245,100.842,151.872,93.5,151.872z"/>
</g>
</svg>
