<?xml version="1.0" encoding="utf-8"?>
<!-- Generator: Adobe Illustrator 16.0.0, SVG Export Plug-In . SVG Version: 6.00 Build 0)  -->
<!DOCTYPE svg PUBLIC "-//W3C//DTD SVG 1.1//EN" "http://www.w3.org/Graphics/SVG/1.1/DTD/svg11.dtd">
<svg version="1.1" xmlns="http://www.w3.org/2000/svg" xmlns:xlink="http://www.w3.org/1999/xlink" x="0px" y="0px" width="220px"
	 height="220px" viewBox="-12.5 -12.5 220 220" enable-background="new -12.5 -12.5 220 220" xml:space="preserve">
<g id="Layer_2">
	<g>
		
			<linearGradient id="SVGID_1_" gradientUnits="userSpaceOnUse" x1="-255.3325" y1="-128.5576" x2="-53.1566" y2="-330.7336" gradientTransform="matrix(1 0 0 -1 252 -131.5469)">
			<stop  offset="0" style="stop-color:#5E4421"/>
			<stop  offset="1" style="stop-color:#373100"/>
		</linearGradient>
		<rect x="-3.703" y="-2.62" fill="url(#SVGID_1_)" enable-background="new    " width="202.916" height="201.438"/>
		<g>
			<g>
				
					<linearGradient id="SVGID_2_" gradientUnits="userSpaceOnUse" x1="-593.3003" y1="-20.9619" x2="-370.9021" y2="-238.2425" gradientTransform="matrix(1 0 0 -1 579.6309 -32.2051)">
					<stop  offset="0" style="stop-color:#FDC45E"/>
					<stop  offset="1" style="stop-color:#FC9C0D"/>
				</linearGradient>
				<path fill="url(#SVGID_2_)" d="M-12.441-12.5v219.795H207.5V-12.5H-12.441z M190.013,189.877H5.501V5.385h184.511V189.877
					L190.013,189.877z"/>
			</g>
		</g>
		<g>
			<g opacity="0.1">
				<path d="M67.702,117.925l-7.833,26.353H42.738l29.139-92.992H93.05l29.543,92.992h-17.805l-8.228-26.353H67.702z
					 M93.724,105.098l-7.146-22.903c-1.75-5.656-3.236-11.998-4.58-17.383h-0.269c-1.351,5.385-2.693,11.871-4.318,17.383
					L70.4,105.098H93.724z"/>
			</g>
			<g>
				
					<linearGradient id="SVGID_3_" gradientUnits="userSpaceOnUse" x1="-210.8403" y1="-227.4453" x2="-106.6199" y2="-227.4453" gradientTransform="matrix(1 0 0 -1 252 -131.5469)">
					<stop  offset="0" style="stop-color:#FDC45E"/>
					<stop  offset="1" style="stop-color:#FC9C0D"/>
				</linearGradient>
				<path fill="url(#SVGID_3_)" d="M67.702,116.044l-7.833,26.35H42.738l29.139-92.99H93.05l29.543,92.99h-17.805l-8.228-26.35
					H67.702z M93.724,103.214L86.578,80.31c-1.75-5.656-3.236-11.998-4.58-17.381h-0.269c-1.351,5.383-2.693,11.864-4.318,17.381
					L70.4,103.214H93.724z"/>
			</g>
		</g>
		<g>
			<g opacity="0.1">
				<path d="M146.741,58.326c0,5.104-3.646,9.104-9.446,9.104c-5.53,0-9.169-4-9.169-9.104c0-5.244,3.777-9.246,9.306-9.246
					C143.091,49.08,146.6,53.08,146.741,58.326z M129.068,144.279V77.086h16.726v67.193H129.068L129.068,144.279z"/>
			</g>
			<g>
				
					<linearGradient id="SVGID_4_" gradientUnits="userSpaceOnUse" x1="-210.8384" y1="-226.3467" x2="-106.6142" y2="-226.3467" gradientTransform="matrix(1 0 0 -1 252 -131.5469)">
					<stop  offset="0" style="stop-color:#FDC45E"/>
					<stop  offset="1" style="stop-color:#FC9C0D"/>
				</linearGradient>
				<path fill="url(#SVGID_4_)" d="M146.741,56.443c0,5.105-3.646,9.105-9.446,9.105c-5.53,0-9.169-4-9.169-9.105
					c0-5.244,3.777-9.244,9.306-9.244C143.091,47.195,146.6,51.195,146.741,56.443z M129.068,142.396V75.207h16.726V142.4h-16.726
					V142.396z"/>
			</g>
		</g>
	</g>
</g>
<g id="Layer_1">
	<defs>
		<polygon id="SVGID_5_" points="207.5,-12.5 -12.5,207.5 -12.5,-12.5 		"/>
	</defs>
	<clipPath id="SVGID_6_">
		<use xlink:href="#SVGID_5_"  overflow="visible"/>
	</clipPath>
	<g clip-path="url(#SVGID_6_)">
		
			<linearGradient id="SVGID_7_" gradientUnits="userSpaceOnUse" x1="-255.7559" y1="-229.752" x2="-52.7861" y2="-229.752" gradientTransform="matrix(1 0 0 -1 252 -131.5469)">
			<stop  offset="0" style="stop-color:#32297C"/>
			<stop  offset="1" style="stop-color:#282761"/>
		</linearGradient>
		<rect x="-3.756" y="-2.609" fill="url(#SVGID_7_)" enable-background="new    " width="202.97" height="201.627"/>
		<g>
			<g>
				
					<linearGradient id="SVGID_8_" gradientUnits="userSpaceOnUse" x1="-593.396" y1="-21" x2="-370.8651" y2="-238.4102" gradientTransform="matrix(1 0 0 -1 579.6309 -32.2051)">
					<stop  offset="0" style="stop-color:#95C8FD"/>
					<stop  offset="1" style="stop-color:#73B4F4"/>
				</linearGradient>
				<path fill="url(#SVGID_8_)" d="M-12.5-12.5v220h220v-220H-12.5z M190.012,190.064H5.451V5.402h184.558L190.012,190.064
					L190.012,190.064z"/>
			</g>
		</g>
		<g>
			<g opacity="0.1">
				<path d="M45.329,52.344c5.936-1.105,14.168-1.934,25.366-1.934c12.141,0,21.046,2.623,26.849,7.598
					c5.398,4.558,8.904,11.875,8.904,20.577c0,8.838-2.694,16.157-7.825,21.129c-6.612,6.766-16.999,9.943-28.738,9.943
					c-3.104,0-5.936-0.14-8.097-0.554v35.077H45.326V52.344H45.329z M61.791,95.711c2.025,0.55,4.723,0.689,8.096,0.689
					c12.415,0,19.968-6.217,19.968-17.126c0-10.357-7.017-15.878-18.485-15.878c-4.583,0-7.82,0.416-9.582,0.829L61.791,95.711
					L61.791,95.711z"/>
			</g>
			<g>
				
					<linearGradient id="SVGID_9_" gradientUnits="userSpaceOnUse" x1="-207.2534" y1="-226.96" x2="-97.7161" y2="-226.96" gradientTransform="matrix(1 0 0 -1 252 -131.5469)">
					<stop  offset="0" style="stop-color:#95C8FD"/>
					<stop  offset="1" style="stop-color:#73B4F4"/>
				</linearGradient>
				<path fill="url(#SVGID_9_)" d="M45.329,50.46c5.936-1.103,14.168-1.932,25.366-1.932c12.141,0,21.046,2.622,26.849,7.593
					c5.398,4.558,8.904,11.877,8.904,20.577c0,8.84-2.694,16.16-7.825,21.131c-6.612,6.765-16.999,9.941-28.738,9.941
					c-3.104,0-5.936-0.139-8.097-0.549v35.075H45.326V50.46H45.329z M61.791,93.824c2.025,0.553,4.723,0.692,8.096,0.692
					c12.415,0,19.968-6.214,19.968-17.126c0-10.355-7.017-15.881-18.485-15.881c-4.583,0-7.82,0.416-9.582,0.831L61.791,93.824
					L61.791,93.824z"/>
			</g>
		</g>
		<g>
			<g opacity="0.1">
				<path d="M111.57,128.575c3.779,2.351,10.931,4.832,16.87,4.832c7.285,0,10.519-3.038,10.519-7.457
					c0-4.558-2.691-6.907-10.787-9.805c-12.822-4.559-18.219-11.738-18.084-19.606c0-11.881,9.578-21.132,24.829-21.132
					c7.285,0,13.628,1.934,17.401,4.005l-3.235,12.013c-2.836-1.656-8.101-3.866-13.897-3.866c-5.938,0-9.175,2.9-9.175,7.042
					c0,4.28,3.104,6.347,11.473,9.388c11.871,4.419,17.404,10.639,17.54,20.574c0,12.156-9.31,21.132-26.717,21.132
					c-7.958,0-15.109-2.071-19.968-4.835L111.57,128.575z"/>
			</g>
			<g>
				
					<linearGradient id="SVGID_10_" gradientUnits="userSpaceOnUse" x1="-207.2529" y1="-240.2178" x2="-97.7124" y2="-240.2178" gradientTransform="matrix(1 0 0 -1 252 -131.5469)">
					<stop  offset="0" style="stop-color:#95C8FD"/>
					<stop  offset="1" style="stop-color:#73B4F4"/>
				</linearGradient>
				<path fill="url(#SVGID_10_)" d="M111.57,126.693c3.779,2.349,10.931,4.831,16.87,4.831c7.285,0,10.519-3.037,10.519-7.455
					c0-4.561-2.691-6.904-10.787-9.81c-12.822-4.557-18.219-11.733-18.084-19.603c0-11.881,9.578-21.131,24.829-21.131
					c7.285,0,13.628,1.931,17.401,4.002l-3.235,12.015c-2.836-1.657-8.101-3.868-13.897-3.868c-5.938,0-9.175,2.9-9.175,7.042
					c0,4.28,3.104,6.351,11.473,9.391c11.871,4.417,17.404,10.635,17.54,20.577c0,12.153-9.31,21.13-26.717,21.13
					c-7.958,0-15.109-2.074-19.968-4.838L111.57,126.693z"/>
			</g>
		</g>
	</g>
</g>
</svg>
