<?xml version="1.0" encoding="utf-8"?>
<!-- Generator: Adobe Illustrator 16.0.0, SVG Export Plug-In . SVG Version: 6.00 Build 0)  -->
<!DOCTYPE svg PUBLIC "-//W3C//DTD SVG 1.1//EN" "http://www.w3.org/Graphics/SVG/1.1/DTD/svg11.dtd">
<svg version="1.1" id="Layer_1" xmlns="http://www.w3.org/2000/svg" xmlns:xlink="http://www.w3.org/1999/xlink" x="0px" y="0px"
	 width="48px" height="48px" viewBox="3.875 1.375 48 48" enable-background="new 3.875 1.375 48 48" xml:space="preserve">
<g>
	<path fill="#0585C8" d="M31.18,8.969c0.117-2.22,2.043-4.146,4.029-4.672c4.906-1.4,7.59-1.168,16.408-1.226
		c-5.314,4.729-9.518,12.203-8.584,19.501c-1.926-1.576-3.211-3.795-4.846-5.547c0.643-1.227,1.227-2.395,1.576-3.736
		c0.584-2.219,2.221-2.744,4.205-2.686c0.176,0-0.117-1.693-0.643-1.811c-1.518-0.408-2.803,0.059-4.553-0.643
		c-0.525-0.175-1.168,0.117-1.637,0.351c-1.459,0.7-2.334,2.277-3.971,2.803L31.18,8.969L31.18,8.969z"/>
	<path fill="#0585C8" d="M4.206,7.51c3.036-2.044,5.956-3.445,9.517-4.146c4.496-0.817,9.4-0.876,12.728,2.394
		c6.366,6.131,11.502,12.554,17.108,19.5c0.176,0.294,0.176,1.053,0,1.17c-3.971,2.275-7.883,4.088-12.086,5.662
		c-0.701,0.232-1.518-0.059-1.984-0.406C23.122,25.9,18.802,18.953,12.672,12.939c-2.336-2.277-5.138-3.97-8.292-4.904
		C4.089,7.917,4.089,7.625,4.206,7.51L4.206,7.51z"/>
	<path fill="#0585C8" d="M26.393,35.711c-4.554,3.27-8.466,7.299-11.385,12.145c-1.11-4.729-1.168-9.75,0.467-14.305
		c1.577-4.496,1.927-8.818,2.102-13.488c2.919,3.386,6.189,7.066,8.933,10.394L26.393,35.711L26.393,35.711z"/>
</g>
</svg>
