<?xml version="1.0" encoding="utf-8"?>
<!-- Generator: Adobe Illustrator 16.0.0, SVG Export Plug-In . SVG Version: 6.00 Build 0)  -->
<!DOCTYPE svg PUBLIC "-//W3C//DTD SVG 1.1//EN" "http://www.w3.org/Graphics/SVG/1.1/DTD/svg11.dtd">
<svg version="1.1" xmlns="http://www.w3.org/2000/svg" xmlns:xlink="http://www.w3.org/1999/xlink" x="0px" y="0px" width="220px"
	 height="220px" viewBox="0 0 220 220" enable-background="new 0 0 220 220" xml:space="preserve">
<g id="Layer_2" display="none">
	<rect x="-1.982" y="-1.33" display="inline" fill="#19364B" width="224.84" height="223.567"/>
</g>
<g id="Layer_1">
	<g>
		<linearGradient id="SVGID_1_" gradientUnits="userSpaceOnUse" x1="110.0005" y1="219.9727" x2="110.0005" y2="44.9993">
			<stop  offset="0" style="stop-color:#2F6087"/>
			<stop  offset="1" style="stop-color:#4381B2"/>
		</linearGradient>
		<path fill="url(#SVGID_1_)" d="M83.18,65.873l-2.117,0.19l-2.188,2.625l2.548,15.067l3.904,0.628l1.138-10.579l2.161-8.928
			L83.18,65.873z M94.013,167.728v3.904l2.394,1.383l2.134,1.388l3.653-0.127l0.883-7.299l-4.91-0.378L94.013,167.728z
			 M78.902,167.851l-6.671-0.874l-2.639,2.885l0.246,4.791h4.536l2.894-0.887l2.266-0.501v-2.143L78.902,167.851z M87.083,70.15
			l-2.385,12.463l-1.888-1.634L80.29,70.15l-1.868-7.962l-0.578-3.14l-4.475,2.292l-10.83,5.292l3.772,40.292l0.632,8.559
			l0.127,1.256l2.389,0.878l0.255,37.648l0.25,13.723l4.027-0.5l4.91,0.5l0.632,2.135l1.133-1.634l2.394-43.432l1.26-11.835
			l1.756,2.135l2.898,19.27l1.634,20.012l1.265,9.569l2.512,3.021l4.281,0.26l3.153-0.76l0.874-70.632l5.296-20.771l-5.415-6.548
			l-6.047-7.176L95.524,61.6l-2.648-1.379l-4.436-1.396L87.083,70.15z M155.199,177.046l1.26,6.671l1.893-0.382l1.119-0.751
			l0.133-5.788L155.199,177.046z M153.814,97.473l0.25,4.286l1.635,1.26l1.52-1.642l0.5-4.154L153.814,97.473z M157.338,97.855
			l-0.457,5.028v20.656l-2.359,23.156l-0.162,31.232l11.58-0.839l0.168-11.918l4.703-18.638l0.328-13.768l2.859-12.919l2.178,12.919
			l4.541,25.01l3.518,18.633l5.041,0.848l6.715-1.006l-1.516-20.819l-3.02-14.606l-1.502-38.78l2.34-3.18l4.199-12.089l0.672-3.359
			l-1.174-1.515l-6.385-22.489l-2.178-4.022l-8.902-2.358l-1.668-0.883l-1.01-3.816l-9.191,0.044l-0.76,3.649l-4.404,1.133
			l-8.188,2.644l-1.633,2.894l-7.799,13.723l5.656,17.5l4.404,10.07l2.266-2.134H157.338z M166.441,43.972l0.508,5.872l1.678,1.348
			l6.211,0.329l0.838-1.677l-0.162-2.521L166.441,43.972z M187.801,177.419l0.25,2.012l2.779,0.633l3.645,1.638l4.787,0.132
			l1.385-1.015l-1.002-1.88l-3.654-2.688l-3.025-0.597L187.801,177.419z M167.279,30.117l-0.752,3.03l-2.02,6.789l1.02,3.276
			l1.252,2.262l3.521,2.859h4.035l2.521-2.35l1.633-5.287l-0.803-2.509l0.51-2.612l-2.521-4.37L167.279,30.117z M144.373,207.137
			l0.502,5.287l5.537,1.26l2.52,2.267l7.549,1.506l6.549-2.262l-1.252-3.53l-4.285-4.027l-4.023-2.271L144.373,207.137z
			 M101.316,204.115l-3.526,5.533l-4.532,4.286l-0.505,4.777l4.782,1.261l8.058-2.266l0.505-2.262l2.767,0.755l5.787-2.517
			l-0.25-3.78L101.316,204.115z M101.821,115.982l0.755,44.311L99.3,194.037l0.501,7.307l-2.517,7.299l2.771-2.262l5.033,1.761
			l4.036,3.522h4.527l4.026-7.049l3.276-23.164l1.511-24.426l3.021-13.851l3.271-12.085l5.287,23.296l7.057,39.528l1.002,2.644
			l-0.123,9.568l1.893,1.893l2.135,2.262l3.402-0.118l1.252-1.52l4.787-3.145l2.27-0.76l2.002,1.011l0.133-6.921l-2.135-2.653
			v-9.938l-3.904-27.578l-0.76-11.203l0.383-36.378l3.521-1.52l-2.143-4.777l-1.98-1.462l-20.293-8.743l-12.344,2.147l-8.055,8.309
			L101.821,115.982l14.097,0.251 M115.918,116.233l3.903-0.378l2.011-3.271l1.512-13.086l1.26-0.259l0.123,2.644l1.643,6.674
			l3.771,6.166l9.068-1.511l10.07-1.634l7.307-3.148l-2.02-2.643l-2.385-12.094l-2.771-6.917l-1.133-5.288l-0.76-4.154l4.027-1.893
			l2.898-6.917l0.25-6.925l-1.01-8.941l1.01-2.394l-0.5-2.771l1.256-4.655l-1.766-5.674l-2.639-1.125l-14.729-5.673l-3.773-3.904
			l-14.614-0.373l-3.526,4.787l-17.368,6.798l-1.511,3.021l0.25,9.819l-1.761,6.798l1.006,12.085l4.532,5.041l5.037,0.755
			l0.25,4.273l-1.511,3.021l-3.021,7.558l1.01,0.5l-2.271,17.627l-1.006,7.308l3.781,0.5 M117.051,24.329l0.127,4.027l5.287,4.414
			l4.404-1.133l4.281-4.541v-4.527L117.051,24.329z M130.273,63.611l-1.384-3.777l-1.643,0.755l0.589,7.553l1.555-0.628l0.5-2.02
			L130.273,63.611z M131.273,6.452l-2.635-2.894l-4.412-1.643l-6.048,1.643l-2.384,2.516l-1.006,6.293l-1.512,0.132l-0.254,1.379
			l1.506,5.037l1.766,1.634l0.633,4.541l2.512,3.017l1.893,0.878l4.654,0.131l1.635-1.642l3.529-4.905l0.375-2.271l1.018-1.133
			l1.379-2.134l0.373-2.78l-0.25-2.262l-1.383,0.509L131.273,6.452z M132.162,13.5l0.75-0.624l-0.25-5.665l-0.752-1.52l-2.143-3.395
			l-3.28-2.271l-6.666,0.25l-5.032,4.664l-0.756,1.634l-0.259,5.665l1.015,0.637l1.006,2.635l0.619-4.022V6.074l3.284-1.893
			l7.422-0.373l2.902,2.516l0.501,4.659l1.137,3.9L132.162,13.5z M117.178,29.744l1.133,2.012l2.521,8.813l1.383-6.166l0.628-2.648
			l-5.792-4.783L117.178,29.744z M131.402,25.589l-5.666,5.916l1.384,2.393l0.386,5.411l4.906-8.941l-0.387-4.277L131.402,25.589z
			 M122.584,32.51l-0.619,3.281l2.762-0.378l2.271,0.378l0.123-1.893l-1.384-2.393L122.584,32.51z M123.853,34.021l-1.888,1.77
			l-1.133,4.778l1.251,6.047l1.392,4.651l0.752-4.154l3.279-7.804l-0.136-1.506l-0.373-2.011L123.853,34.021z M131.525,64.612
			l3.279-0.751l2.012-1.261l4.537-1.001l-2.521-2.775l-9.569-0.5l-2.266,1.251l2.266,2.266l0.312,2.512l0.193,1.52L131.525,64.612z
			 M148.312,39.765l-5.119,5.129l-5.451,13.508 M94.013,57.313l0.755,11.497l4.866,6.047l26.19-3.197l0.839-1.51l1.173-2.007
			l0.171-6.89l-0.843-2.85l-4.699-0.206l-7.176,0.377l-4.281,0.374l-8.181-0.25l-3.025-5.538l6.969-1.045l0.079-3.487l-2.894-5.287
			l-4.277-3.904l-3.149-1.129 M116.677,72.986l1.134,3.307l1.76-0.663l0.51-3.307L116.677,72.986z M150.162,86.609 M141.932,87.276
			l8.23-0.667l0.5-1.511l-1.678-3.197l-9.564-0.834l-0.166,3.693L141.932,87.276z M184.027,85.393l4.238,3.566l-1.01-7.22
			l-2.85-9.24l-0.5,12.599 M156.881,76.03l-1.85,8.559l-0.838,2.358l3.188,3.359l2.68-8.405l-3.018-5.362 M176.471,51.021
			l-0.623,3.021l-3.031,9.068l-3.68-4.87l-3.24-5.582l0.131-1.638l-2.02,1.638l0.369,5.023l-1.186,1.774l9.611,5.177l5.621-5.919
			l-0.443-1.476l0.545-4.207L176.471,51.021z M157.131,89.187l1.176,5.617l0.65,1.054l4.668,7.531l5.631-0.149l4.295-4.141V94.07
			l0.135-6.368l-0.883-23.068 M189.953,102.045l0.75-6.71l-2.438-6.376l-2.889,6.886l-0.675,0.914l-8.297,1.48l-2.854,0.86
			 M101.316,90.548l4.91-0.241l1.633-2.147l0.505-3.777l-1.889-0.5l-3.781,0.377 M40.503,179.94l-1.506,2.771l-0.505,3.276
			l0.377,5.533l1.128,1.643l4.414-0.26l2.262-1.633l0.377-4.906l-0.628-5.673L40.503,179.94z M66.944,180.572l-1.383,3.646
			l-0.255,6.424l3.276,0.378l2.894,1.634l5.792-0.127l1.761-3.018l-0.755-1.511l-3.021-2.011l-2.767-0.76l-2.016-4.409
			L66.944,180.572z M123.967,98.988l0.518-9.692l0.242-5.924l-0.373-3.145l-0.25-1.52 M84.321,61.977l-3.403,1.375l0.755,3.281
			l1.005,2.016l1.265-1.26l1.006,1.005l0.755-4.031L84.321,61.977z M119.949,72.301l-0.128,3.645l0.378,2.898l5.287-0.25
			l5.916,0.874l9.441-0.373l6.674-1.761 M89.227,60.967l-0.878-2.394l-3.825,2.85l-3.101,0.044l-3.61-2.894
			c0,0,0.207,2.517-0.167,2.394c-0.378-0.127,2.644,9.819,2.644,9.819l2.27-7.303l1.129-0.25l1.383,1.129l1.893,6.174L89.227,60.967
			z M120.08,75.064 M78.401,54.67l-0.505,3.025l1.006,3.522l5.419,0.76l3.562-1.893l0.966-4.91L78.401,54.67z M104.544,51.789
			l-2.231,0.694l-2.885,0.426l3.017,5.753l8.515,0.281l1.049-0.281l-2.358-3.228l-3.403-3.645H104.544z M90.109,45.224l-1.133-1.506
			l-4.532-2.648l-2.894-0.751l-3.403,2.262l-2.139,5.415l-0.382,0.883l0.51,4.664l0.25,0.619l2.139,2.903l2.271,2.644l4.022,0.259
			l4.159-4.291l0.628-2.266l0.632-1.133l0.25-2.898l-0.883-0.373L90.109,45.224z M63.418,121.529l-15.612,2.011l4.532,7.299
			l6.675,15.989l-0.505,5.292l4.787,13.337l3.399,11.589l0.123,3.904l2.898,0.623l1.638,3.272l2.762,2.02l0.505-1.761l-1.251-4.791
			l-1.638-3.268l-3.654-27.319l-1.005-3.781l-0.378-4.905l-2.266-17.5L63.418,121.529z M32.823,125.802l1.638,15.107l0.632,7.931
			l-0.127,5.041l4.914,23.666l0.5,2.902l-0.382,1.124l0.259,3.904l2.389,1.889l2.894-2.521l0.751-2.763l-1.124-2.652l-1.01-2.262
			l0.878-27.442l-0.377-4.281l0.76-4.286l0.123-16.736L32.823,125.802z M35.471,44.851l-12.217,5.415l-2.007,6.416l0.123,18.514
			l-1.884,28.575l-0.132,1.515l2.644,0.378l3.276,3.644l0.878,6.807l-0.123,9.188l1.379,2.016l5.669-1.133l6.42-0.383l5.669-0.377
			l7.048-0.628l6.67-0.255l10.197-2.521l-0.378-4.154l-1.133-2.513l-0.374-6.679l-0.254-4.272l2.894-0.132L69.46,79.095
			l-1.633-6.174l-5.165-21.4l-3.522-1.383l-7.053-3.403L35.471,44.851z M85.45,38.553l-4.282,0.132l-4.154,3.395l-1.133,1.761
			l0.127,5.797l0.755,0.25l0.505-3.904l3.526-3.403l5.028,0.259l3.535,3.144l-0.255,3.522l0.5-0.127l1.133-4.905l-0.76-1.633
			L85.45,38.553z M37.482,42.839l-1.765,1.379l-2.64,4.659l-1.884,3.03l0.123,1.251l1.888-0.751l3.149-1.893h1.884l4.914,6.798
			l1.629,2.394l1.642-1.261l0.755-4.286l4.91-2.011l5.288,1.01l1.01-1.511l-5.915-4.027l-5.419-5.292L37.482,42.839z M69.46,117.616
			l12.59-1.128l2.271-2.267l0.878-3.144l-0.501-28.465 M85.2,111.078l2.771,4.404l3.271,1.383l10.074-0.632 M84.817,84.892
			l9.819-15.115l-1.633-1.01 M91.115,60.339l2.644,9.06 M76.008,60.084l-2.143,9.951l2.016-2.147 M38.87,43.84l-0.883,1.893
			l0.883,2.771l4.532,4.655l1.51,2.771l0.883-2.898l2.266-3.526l0.25-3.271l-1.133-0.874l-0.628-1.897L38.87,43.84z M73.865,70.036
			l7.303,11.576l3.649,3.28 M50.955,32.51l-3.526-6.42l-6.798-1.129l-6.548,9.442l0.632,3.772l1.888,2.521l2.139,4.154l1.006,0.509
			l4.409-0.259l1.383-0.628l3.281-3.645L50.955,32.51z M47.051,28.606l0.883,3.03l0.127,3.012l1.128,1.261l-0.628,2.898
			l-0.883,4.405l4.792,4.409l-0.382-5.16l-1.133-1.633l1.633-4.036l-0.755-8.436L49.44,26.09l-1.634-2.894l-3.899-1.26l-4.91,0.505
			l-3.28,2.262l-2.762,2.27l-1.015,4.783l1.265,3.658l-0.25,3.395l2.516,1.261l1.133,0.628l-0.377-1.761l-1.383-1.511l0.755-2.775
			l1.124-0.5l2.652-2.139l1.634,0.119l2.266-4.273L47.051,28.606z M34.083,113.462l10.575,1.511h4.782l-0.5-3.021l0.755-13.595
			l-2.016-20.139l-1.506-15.616 M49.695,113.462l2.521,2.271h6.038l3.781-0.501 M64.551,115.732l0.255-4.281l1.005,1.511
			l-0.25,3.021l-1.515,2.016l1.515,3.021l2.011-2.02l2.02-5.287l-1.265-9.31l-2.262-0.501l-1.77,1.761l-1.757,6.288l1.006,3.781
			 M23.253,104.153l1.511,9.059l6.297,6.798l2.266-0.501l1.01-2.016l-4.032-3.78l-0.505-3.522l1.766,3.021l2.27,1.511l-0.76-2.771
			l-2.771-5.027l-3.271-2.771H23.253z M37.359,113.972l0.755-15.356l-1.005-20.658 M178.24,40.696l1.002-4.532l-1.385-4.277
			l-2.52-3.03l-4.527-0.501l-4.283,1.261l-2.02,4.281v3.268l1.02,2.521l0.75-1.511l1.252-3.526l3.785,0.255l5.543-0.5l0.75,4.022
			L178.24,40.696z M127.37,58.947l10.329-14.975l-3.021-3.777l3.648-1.77l-2.01-8.058 M124.727,58.446l-1.252-7.426 M114.402,30.877
			l-3.268,7.43l3.018,2.639l-4.023,1.761l9.441,15.739 M28.295,105.242l1.678-0.838l-1.01-16.117l0.167-17.456v-8.059
			 M60.357,59.742l-1.682,11.251l1.515,10.746l0.663,16.117l-0.163,8.388l3.605-0.58 M28.962,90.307l2.011-9.407l-1.844-10.069
			l-0.083,17.794L28.962,90.307z M58.675,70.993l-0.672,8.735l2.85,17.118L60.19,81.739l-1.515-10.908"/>
	</g>
	<g>
	</g>
	<g>
	</g>
	<g>
	</g>
	<g>
	</g>
	<g>
	</g>
	<g>
	</g>
	<g>
	</g>
	<g>
	</g>
	<g>
	</g>
	<g>
	</g>
	<g>
	</g>
	<g>
	</g>
	<g>
	</g>
	<g>
	</g>
	<g>
	</g>
</g>
</svg>
