<?xml version="1.0" encoding="utf-8"?>
<!-- Generator: Adobe Illustrator 16.0.0, SVG Export Plug-In . SVG Version: 6.00 Build 0)  -->
<!DOCTYPE svg PUBLIC "-//W3C//DTD SVG 1.1//EN" "http://www.w3.org/Graphics/SVG/1.1/DTD/svg11.dtd">
<svg version="1.1" id="Layer_1" xmlns="http://www.w3.org/2000/svg" xmlns:xlink="http://www.w3.org/1999/xlink" x="0px" y="0px"
	 width="111.154px" height="112.389px" viewBox="5.578 5.78 111.154 112.389" enable-background="new 5.578 5.78 111.154 112.389"
	 xml:space="preserve">
<g id="g2303">
	
		<linearGradient id="path1948_1_" gradientUnits="userSpaceOnUse" x1="396.6472" y1="784.2781" x2="505.665" y2="878.0732" gradientTransform="matrix(0.5625 0 0 0.568 -220.2678 -436.4978)">
		<stop  offset="0" style="stop-color:#5A9FD4"/>
		<stop  offset="1" style="stop-color:#306998"/>
	</linearGradient>
	<path id="path1948" fill="url(#path1948_1_)" d="M60.496,5.78c-4.584,0.021-8.961,0.412-12.812,1.095
		C36.339,8.88,34.278,13.074,34.278,20.812v10.219h26.812v3.406H34.278H24.216c-7.792,0-14.616,4.685-16.75,13.594
		c-2.462,10.214-2.571,16.587,0,27.25c1.905,7.938,6.458,13.594,14.25,13.594h9.219v-12.25c0-8.851,7.657-16.656,16.75-16.656
		h26.781c7.455,0,13.404-6.138,13.404-13.625V20.812c0-7.266-6.128-12.725-13.404-13.938C69.86,6.107,65.08,5.76,60.496,5.78z
		 M45.996,14c2.771,0,5.031,2.299,5.031,5.125c0,2.815-2.262,5.094-5.031,5.094c-2.778,0-5.03-2.277-5.03-5.094
		C40.966,16.299,43.218,14,45.996,14z"/>
	
		<linearGradient id="path1950_1_" gradientUnits="userSpaceOnUse" x1="547.8201" y1="934.8386" x2="508.892" y2="879.762" gradientTransform="matrix(0.5625 0 0 0.568 -220.2678 -436.4978)">
		<stop  offset="0" style="stop-color:#FFD43B"/>
		<stop  offset="1" style="stop-color:#FFE873"/>
	</linearGradient>
	<path id="path1950" fill="url(#path1950_1_)" d="M91.216,34.437v11.906c0,9.23-7.826,17-16.75,17H47.684
		c-7.336,0-13.406,6.278-13.406,13.625v25.53c0,7.268,6.318,11.541,13.406,13.625c8.487,2.496,16.627,2.946,26.781,0
		c6.75-1.955,13.404-5.89,13.404-13.625V92.28H61.091v-3.406H87.87h13.407c7.793,0,10.697-5.436,13.406-13.594
		c2.799-8.397,2.68-16.476,0-27.25c-1.926-7.757-5.604-13.594-13.406-13.594L91.216,34.437L91.216,34.437z M76.153,99.092
		c2.779,0,5.031,2.277,5.031,5.094c0,2.826-2.252,5.125-5.031,5.125c-2.77,0-5.031-2.299-5.031-5.125
		C71.121,101.37,73.384,99.092,76.153,99.092z"/>
</g>
</svg>
