<?xml version="1.0" encoding="utf-8"?>
<!-- Generator: Adobe Illustrator 16.0.0, SVG Export Plug-In . SVG Version: 6.00 Build 0)  -->
<!DOCTYPE svg PUBLIC "-//W3C//DTD SVG 1.1//EN" "http://www.w3.org/Graphics/SVG/1.1/DTD/svg11.dtd">
<svg version="1.1" xmlns="http://www.w3.org/2000/svg" xmlns:xlink="http://www.w3.org/1999/xlink" x="0px" y="0px" width="220px"
	 height="220px" viewBox="0 0 220 220" enable-background="new 0 0 220 220" xml:space="preserve">
<g id="Layer_2" display="none">
	<rect x="0" y="-1.33" display="inline" fill="#19364B" width="224.84" height="223.567"/>
</g>
<g id="Layer_1">
	<g>
		<g>
			<path fill="#000080000000" d="M45.732,147.067c-2.869,0.999-6.188,1.499-9.958,1.499s-7.09-0.5-9.958-1.499
				c-2.869-0.999-5.229-2.393-7.082-4.182c-1.854-1.788-3.359-4.036-4.52-6.743s-1.982-5.632-2.465-8.773
				c-0.483-3.143-0.725-6.695-0.725-10.659V61.022h12.375v55.688c0,2.675,0.056,4.915,0.169,6.72
				c0.113,1.805,0.411,3.73,0.895,5.776c0.483,2.047,1.152,3.683,2.006,4.906c0.854,1.226,2.062,2.24,3.626,3.046
				c1.562,0.806,3.456,1.208,5.68,1.208s4.116-0.402,5.68-1.208c1.563-0.806,2.771-1.82,3.626-3.046
				c0.853-1.224,1.522-2.859,2.006-4.906c0.483-2.046,0.781-3.972,0.895-5.776c0.112-1.805,0.169-4.045,0.169-6.72V61.022h12.375
				v55.688c0,3.964-0.242,7.517-0.725,10.659c-0.483,3.142-1.305,6.066-2.465,8.773s-2.667,4.955-4.52,6.743
				C50.96,144.675,48.6,146.068,45.732,147.067z"/>
			<path fill="#000080000000" d="M94.797,148.518c-7.799,0-13.752-2.287-17.862-6.864c-4.108-4.575-6.405-10.828-6.888-18.756
				l12.375-3.094c0.612,12.375,4.737,18.562,12.375,18.562c6.187,0,9.28-3.094,9.28-9.281c0-1.837-0.25-3.536-0.748-5.1
				c-0.5-1.563-1.266-2.997-2.297-4.303c-1.031-1.305-1.965-2.352-2.803-3.142c-0.839-0.789-1.982-1.765-3.433-2.925l-15.469-12.375
				c-2.836-2.224-5.1-5.052-6.792-8.483c-1.692-3.433-2.538-7.339-2.538-11.723c0-6.381,1.982-11.457,5.946-15.227
				s9.216-5.656,15.759-5.656c7.024,0,12.608,1.716,16.749,5.148c4.141,3.432,6.695,8.29,7.662,14.574
				c0.098,0.677,0.209,1.612,0.338,2.804l-12.375,3.094c-0.031-0.547-0.113-1.369-0.24-2.465c-0.549-3.931-1.781-7.082-3.699-9.451
				c-1.917-2.368-4.729-3.553-8.435-3.553c-2.965,0-5.253,0.83-6.864,2.489c-1.612,1.661-2.417,3.973-2.417,6.937
				c0,4.867,2.062,8.943,6.188,12.23l15.468,12.375c8.25,6.671,12.375,14.647,12.375,23.929c0,6.349-1.957,11.311-5.873,14.889
				C106.665,146.729,101.403,148.518,94.797,148.518z"/>
			<path fill="#000080000000" d="M125.493,147.647V61.022h34.031v9.281h-21.656v27.844h15.469v9.281h-15.469v30.938h21.656v9.281
				H125.493z"/>
			<path fill="#000080000000" d="M167.113,147.647V61.022h15.469c9.216,0,16.161,1.789,20.834,5.366s7.01,9.523,7.01,17.837
				c0,5.157-0.918,9.475-2.756,12.955c-1.836,3.48-4.527,5.866-8.072,7.154l13.922,43.312h-12.278l-12.472-40.219h-9.281v40.219
				H167.113z M179.488,98.147h3.094c5.155,0,9.022-1.088,11.602-3.263c2.578-2.176,3.867-5.729,3.867-10.659
				s-1.289-8.483-3.867-10.659c-2.579-2.175-6.446-3.263-11.602-3.263h-3.094V98.147z"/>
		</g>
		<g>
			<linearGradient id="SVGID_1_" gradientUnits="userSpaceOnUse" x1="112.2715" y1="148.5664" x2="112.2715" y2="60.1528">
				<stop  offset="0" style="stop-color:#E5E34D"/>
				<stop  offset="1" style="stop-color:#F5F396"/>
			</linearGradient>
			<path fill="url(#SVGID_1_)" d="M45.732,147.067c-2.869,0.999-6.188,1.499-9.958,1.499s-7.09-0.5-9.958-1.499
				c-2.869-0.999-5.229-2.393-7.082-4.182c-1.854-1.788-3.359-4.036-4.52-6.743s-1.982-5.632-2.465-8.773
				c-0.483-3.143-0.725-6.695-0.725-10.659V61.022h12.375v55.688c0,2.675,0.056,4.915,0.169,6.72
				c0.113,1.805,0.411,3.73,0.895,5.776c0.483,2.047,1.152,3.683,2.006,4.906c0.854,1.226,2.062,2.24,3.626,3.046
				c1.562,0.806,3.456,1.208,5.68,1.208s4.116-0.402,5.68-1.208c1.563-0.806,2.771-1.82,3.626-3.046
				c0.853-1.224,1.522-2.859,2.006-4.906c0.483-2.046,0.781-3.972,0.895-5.776c0.112-1.805,0.169-4.045,0.169-6.72V61.022h12.375
				v55.688c0,3.964-0.242,7.517-0.725,10.659c-0.483,3.142-1.305,6.066-2.465,8.773s-2.667,4.955-4.52,6.743
				C50.96,144.675,48.6,146.068,45.732,147.067z"/>
			<linearGradient id="SVGID_2_" gradientUnits="userSpaceOnUse" x1="112.2715" y1="148.5664" x2="112.2715" y2="60.1528">
				<stop  offset="0" style="stop-color:#E5E34D"/>
				<stop  offset="1" style="stop-color:#F5F396"/>
			</linearGradient>
			<path fill="url(#SVGID_2_)" d="M94.797,148.518c-7.799,0-13.752-2.287-17.862-6.864c-4.108-4.575-6.405-10.828-6.888-18.756
				l12.375-3.094c0.612,12.375,4.737,18.562,12.375,18.562c6.187,0,9.28-3.094,9.28-9.281c0-1.837-0.25-3.536-0.748-5.1
				c-0.5-1.563-1.266-2.997-2.297-4.303c-1.031-1.305-1.965-2.352-2.803-3.142c-0.839-0.789-1.982-1.765-3.433-2.925l-15.469-12.375
				c-2.836-2.224-5.1-5.052-6.792-8.483c-1.692-3.433-2.538-7.339-2.538-11.723c0-6.381,1.982-11.457,5.946-15.227
				s9.216-5.656,15.759-5.656c7.024,0,12.608,1.716,16.749,5.148c4.141,3.432,6.695,8.29,7.662,14.574
				c0.098,0.677,0.209,1.612,0.338,2.804l-12.375,3.094c-0.031-0.547-0.113-1.369-0.24-2.465c-0.549-3.931-1.781-7.082-3.699-9.451
				c-1.917-2.368-4.729-3.553-8.435-3.553c-2.965,0-5.253,0.83-6.864,2.489c-1.612,1.661-2.417,3.973-2.417,6.937
				c0,4.867,2.062,8.943,6.188,12.23l15.468,12.375c8.25,6.671,12.375,14.647,12.375,23.929c0,6.349-1.957,11.311-5.873,14.889
				C106.665,146.729,101.403,148.518,94.797,148.518z"/>
			<linearGradient id="SVGID_3_" gradientUnits="userSpaceOnUse" x1="112.2715" y1="148.5664" x2="112.2715" y2="60.1528">
				<stop  offset="0" style="stop-color:#E5E34D"/>
				<stop  offset="1" style="stop-color:#F5F396"/>
			</linearGradient>
			<path fill="url(#SVGID_3_)" d="M125.493,147.647V61.022h34.031v9.281h-21.656v27.844h15.469v9.281h-15.469v30.938h21.656v9.281
				H125.493z"/>
			<linearGradient id="SVGID_4_" gradientUnits="userSpaceOnUse" x1="112.2715" y1="148.5664" x2="112.2715" y2="60.1528">
				<stop  offset="0" style="stop-color:#E5E34D"/>
				<stop  offset="1" style="stop-color:#F5F396"/>
			</linearGradient>
			<path fill="url(#SVGID_4_)" d="M167.113,147.647V61.022h15.469c9.216,0,16.161,1.789,20.834,5.366s7.01,9.523,7.01,17.837
				c0,5.157-0.918,9.475-2.756,12.955c-1.836,3.48-4.527,5.866-8.072,7.154l13.922,43.312h-12.278l-12.472-40.219h-9.281v40.219
				H167.113z M179.488,98.147h3.094c5.155,0,9.022-1.088,11.602-3.263c2.578-2.176,3.867-5.729,3.867-10.659
				s-1.289-8.483-3.867-10.659c-2.579-2.175-6.446-3.263-11.602-3.263h-3.094V98.147z"/>
		</g>
	</g>
	<g>
		<g>
			<path fill="#FFFF6F" d="M11.019,52.611v-10.5h4.125v1.125h-2.625v3.375h1.875v1.125h-1.875v4.875H11.019z"/>
			<path fill="#FFFF6F" d="M19.954,52.541c-0.348,0.121-0.75,0.182-1.207,0.182s-0.859-0.061-1.207-0.182s-0.634-0.29-0.858-0.507
				s-0.407-0.489-0.548-0.817s-0.24-0.683-0.299-1.063s-0.088-0.812-0.088-1.292v-6.75h1.5v6.75c0,0.324,0.007,0.596,0.021,0.814
				s0.05,0.452,0.108,0.7s0.14,0.446,0.243,0.595s0.25,0.271,0.439,0.369s0.419,0.146,0.688,0.146s0.499-0.049,0.688-0.146
				s0.336-0.221,0.439-0.369s0.185-0.347,0.243-0.595s0.095-0.481,0.108-0.7s0.021-0.49,0.021-0.814v-6.75h1.5v6.75
				c0,0.48-0.029,0.911-0.088,1.292s-0.158,0.735-0.299,1.063s-0.323,0.601-0.548,0.817S20.302,52.42,19.954,52.541z"/>
			<path fill="#FFFF6F" d="M23.165,52.611v-10.5h1.125l2.625,6.492v-6.492h1.5v10.5h-1.066l-2.684-6.984v6.984H23.165z"/>
			<path fill="#FFFF6F" d="M32.61,52.717c-0.441,0-0.83-0.062-1.166-0.188s-0.611-0.298-0.826-0.519s-0.39-0.496-0.524-0.826
				s-0.229-0.683-0.284-1.058s-0.082-0.799-0.082-1.271v-2.994c0-0.473,0.027-0.896,0.082-1.271s0.149-0.728,0.284-1.058
				s0.31-0.604,0.524-0.823s0.49-0.391,0.826-0.516s0.725-0.188,1.166-0.188c0.488,0,0.91,0.072,1.266,0.217s0.64,0.357,0.853,0.639
				s0.373,0.607,0.48,0.979s0.171,0.805,0.19,1.301c0.004,0.074,0.006,0.189,0.006,0.346h-1.5v-0.334
				c-0.004-0.207-0.012-0.384-0.023-0.53s-0.033-0.298-0.064-0.454s-0.077-0.286-0.138-0.39s-0.137-0.199-0.229-0.287
				s-0.208-0.152-0.349-0.193s-0.305-0.062-0.492-0.062c-0.242,0-0.45,0.039-0.624,0.117s-0.31,0.179-0.407,0.302
				s-0.173,0.288-0.226,0.495s-0.087,0.409-0.103,0.606s-0.023,0.44-0.023,0.729v3.75c0,0.25,0.011,0.477,0.032,0.68
				s0.063,0.405,0.126,0.606s0.144,0.37,0.243,0.507s0.232,0.247,0.398,0.331s0.36,0.126,0.583,0.126s0.414-0.043,0.574-0.129
				s0.286-0.195,0.378-0.328s0.164-0.303,0.217-0.51s0.087-0.408,0.103-0.604s0.023-0.422,0.023-0.68v-0.375h1.5v0.375
				c0,0.543-0.048,1.02-0.144,1.43s-0.25,0.772-0.463,1.087s-0.502,0.554-0.867,0.718S33.126,52.717,32.61,52.717z"/>
			<path fill="#FFFF6F" d="M37.521,52.611v-9.164h-1.875v-1.336h5.25v1.336h-1.875v9.164H37.521z"/>
			<path fill="#FFFF6F" d="M41.71,52.611v-10.5h1.5v10.5H41.71z"/>
			<path fill="#FFFF6F" d="M47.522,52.717c-0.527,0-0.979-0.08-1.356-0.24s-0.677-0.395-0.899-0.703s-0.385-0.671-0.486-1.087
				s-0.152-0.899-0.152-1.45v-3.809c0-0.551,0.051-1.031,0.152-1.441s0.264-0.767,0.486-1.069s0.522-0.53,0.899-0.683
				s0.829-0.229,1.356-0.229c1.023,0,1.762,0.293,2.215,0.879s0.68,1.434,0.68,2.543v3.809c0,0.543-0.052,1.022-0.155,1.438
				s-0.267,0.779-0.489,1.09s-0.522,0.547-0.899,0.709S48.046,52.717,47.522,52.717z M46.43,51.012
				c0.201,0.316,0.565,0.475,1.093,0.475s0.892-0.158,1.093-0.475s0.302-0.783,0.302-1.4v-4.559c0-0.609-0.1-1.064-0.299-1.365
				s-0.564-0.451-1.096-0.451s-0.896,0.15-1.096,0.451s-0.299,0.756-0.299,1.365v4.559C46.128,50.229,46.229,50.695,46.43,51.012z"
				/>
			<path fill="#FFFF6F" d="M51.729,52.611v-10.5h1.125l2.625,6.492v-6.492h1.5v10.5h-1.066l-2.684-6.984v6.984H51.729z"/>
			<path fill="#FFFF6F" d="M57.823,52.611l2.25-10.5h1.5l2.25,10.5h-1.5l-0.562-2.625h-1.875l-0.562,2.625H57.823z M60.073,48.861
				h1.5l-0.75-4.5L60.073,48.861z"/>
			<path fill="#FFFF6F" d="M64.667,52.611v-10.5h1.5v9.375h2.625v1.125H64.667z"/>
			<path fill="#FFFF6F" d="M69.56,52.611v-10.5h1.5v10.5H69.56z"/>
			<path fill="#FFFF6F" d="M73.784,52.611v-9.164h-1.875v-1.336h5.25v1.336h-1.875v9.164H73.784z"/>
			<path fill="#FFFF6F" d="M79.386,52.611v-3.375l-2.25-7.125h1.5l1.5,5.25l1.5-5.25h1.5l-2.25,7.125v3.375H79.386z"/>
		</g>
		<g>
			<path fill="#FFFF6F" d="M109.008,54.309c-1.339,0-2.362-0.393-3.067-1.179c-0.706-0.786-1.1-1.859-1.183-3.221l2.125-0.531
				c0.105,2.125,0.813,3.188,2.125,3.188c1.062,0,1.594-0.531,1.594-1.594c0-0.315-0.043-0.607-0.128-0.876
				c-0.086-0.268-0.217-0.515-0.395-0.738c-0.177-0.225-0.337-0.404-0.481-0.54c-0.144-0.135-0.34-0.303-0.589-0.502l-2.656-2.125
				c-0.487-0.382-0.875-0.867-1.167-1.457c-0.29-0.589-0.436-1.26-0.436-2.013c0-1.096,0.34-1.967,1.021-2.615
				s1.583-0.971,2.706-0.971c1.207,0,2.165,0.295,2.877,0.884c0.711,0.59,1.148,1.424,1.314,2.503
				c0.018,0.116,0.037,0.277,0.059,0.481l-2.125,0.531c-0.005-0.094-0.02-0.235-0.042-0.423c-0.094-0.675-0.306-1.216-0.635-1.623
				c-0.33-0.407-0.812-0.61-1.449-0.61c-0.509,0-0.902,0.143-1.179,0.428c-0.277,0.285-0.415,0.682-0.415,1.191
				c0,0.835,0.354,1.536,1.062,2.1l2.656,2.125c1.416,1.146,2.125,2.515,2.125,4.109c0,1.09-0.336,1.942-1.008,2.557
				C111.045,54.001,110.142,54.309,109.008,54.309z"/>
			<path fill="#FFFF6F" d="M114.379,54.159V39.284h2.125v14.875H114.379z"/>
			<path fill="#FFFF6F" d="M118.777,54.159V39.284h2.939l2.107,11.389l2.109-11.389h2.938v14.875h-2.125V42.422l-2.125,11.737
				h-1.594l-2.125-11.737v11.737H118.777z"/>
			<path fill="#FFFF6F" d="M130.996,54.159V39.284h3.719c2.48,0,3.719,1.417,3.719,4.25c0,1.212-0.318,2.135-0.959,2.769
				c-0.639,0.633-1.559,0.95-2.76,0.95h-1.594v6.906H130.996z M133.121,45.659h0.531c0.482,0,0.877-0.028,1.184-0.083
				s0.578-0.159,0.812-0.312c0.236-0.152,0.404-0.369,0.508-0.651c0.102-0.282,0.152-0.642,0.152-1.079
				c0-0.531-0.039-0.961-0.115-1.291c-0.078-0.329-0.221-0.599-0.428-0.809s-0.477-0.355-0.805-0.436
				c-0.33-0.08-0.766-0.12-1.309-0.12h-0.531V45.659z"/>
			<path fill="#FFFF6F" d="M139.638,54.159V39.284h2.125v13.281h3.719v1.594H139.638z"/>
			<path fill="#FFFF6F" d="M146.469,54.159V39.284h5.844v1.594h-3.719v4.781h2.656v1.594h-2.656v5.312h3.719v1.594H146.469z"/>
		</g>
		<g>
			<path fill="#FFFF6F" d="M178.957,52.541c-0.348,0.121-0.75,0.182-1.207,0.182s-0.859-0.061-1.207-0.182s-0.634-0.29-0.858-0.507
				s-0.407-0.489-0.548-0.817s-0.24-0.683-0.299-1.063s-0.088-0.812-0.088-1.292v-6.75h1.5v6.75c0,0.324,0.007,0.596,0.021,0.814
				s0.05,0.452,0.108,0.7s0.14,0.446,0.243,0.595s0.25,0.271,0.439,0.369s0.419,0.146,0.688,0.146s0.499-0.049,0.688-0.146
				s0.336-0.221,0.439-0.369s0.185-0.347,0.243-0.595s0.095-0.481,0.108-0.7s0.021-0.49,0.021-0.814v-6.75h1.5v6.75
				c0,0.48-0.029,0.911-0.088,1.292s-0.158,0.735-0.299,1.063s-0.323,0.601-0.548,0.817S179.305,52.42,178.957,52.541z"/>
			<path fill="#FFFF6F" d="M184.904,52.717c-0.945,0-1.667-0.277-2.165-0.832s-0.776-1.312-0.835-2.273l1.5-0.375
				c0.074,1.5,0.574,2.25,1.5,2.25c0.75,0,1.125-0.375,1.125-1.125c0-0.223-0.03-0.429-0.091-0.618s-0.153-0.363-0.278-0.521
				s-0.238-0.285-0.34-0.381s-0.24-0.214-0.416-0.354l-1.875-1.5c-0.344-0.27-0.618-0.612-0.823-1.028s-0.308-0.89-0.308-1.421
				c0-0.773,0.24-1.389,0.721-1.846s1.117-0.686,1.91-0.686c0.852,0,1.528,0.208,2.03,0.624s0.812,1.005,0.929,1.767
				c0.012,0.082,0.025,0.195,0.041,0.34l-1.5,0.375c-0.004-0.066-0.014-0.166-0.029-0.299c-0.066-0.477-0.216-0.858-0.448-1.146
				s-0.573-0.431-1.022-0.431c-0.359,0-0.637,0.101-0.832,0.302s-0.293,0.481-0.293,0.841c0,0.59,0.25,1.084,0.75,1.482l1.875,1.5
				c1,0.809,1.5,1.775,1.5,2.9c0,0.77-0.237,1.371-0.712,1.805S185.705,52.717,184.904,52.717z"/>
			<path fill="#FFFF6F" d="M187.969,52.611l2.25-10.5h1.5l2.25,10.5h-1.5l-0.562-2.625h-1.875l-0.562,2.625H187.969z
				 M190.219,48.861h1.5l-0.75-4.5L190.219,48.861z"/>
			<path fill="#FFFF6F" d="M194.812,52.611v-10.5h2.25c0.484,0,0.918,0.051,1.301,0.152s0.718,0.256,1.005,0.463
				s0.508,0.48,0.662,0.82s0.231,0.736,0.231,1.189c0,0.656-0.139,1.155-0.416,1.497s-0.705,0.593-1.283,0.753
				c0.625,0.207,1.094,0.511,1.406,0.911s0.469,0.972,0.469,1.714c0,0.926-0.269,1.657-0.806,2.194s-1.269,0.806-2.194,0.806
				H194.812z M196.312,46.611h0.75c1.25,0,1.875-0.625,1.875-1.875c0-0.207-0.025-0.39-0.076-0.548s-0.111-0.29-0.182-0.396
				s-0.177-0.194-0.319-0.267s-0.272-0.128-0.39-0.167s-0.284-0.067-0.501-0.085s-0.397-0.028-0.542-0.032s-0.35-0.006-0.615-0.006
				V46.611z M196.312,51.486h0.75c0.648,0,1.123-0.149,1.424-0.448s0.451-0.774,0.451-1.427s-0.15-1.128-0.451-1.427
				s-0.775-0.448-1.424-0.448h-0.75V51.486z"/>
			<path fill="#FFFF6F" d="M201.527,52.611v-10.5h1.5v9.375h2.625v1.125H201.527z"/>
			<path fill="#FFFF6F" d="M206.35,52.611v-10.5h4.125v1.125h-2.625v3.375h1.875v1.125h-1.875v3.75h2.625v1.125H206.35z"/>
		</g>
		<g>
			<path fill="#FFFF6F" d="M135.569,170.812v-14h3c0.646,0,1.224,0.067,1.734,0.203s0.957,0.341,1.34,0.617s0.677,0.641,0.883,1.094
				s0.309,0.981,0.309,1.586c0,0.875-0.185,1.54-0.555,1.996s-0.94,0.79-1.711,1.004c0.833,0.276,1.458,0.681,1.875,1.215
				s0.625,1.296,0.625,2.285c0,1.234-0.358,2.21-1.074,2.926s-1.691,1.074-2.926,1.074H135.569z M137.569,162.812h1
				c1.667,0,2.5-0.833,2.5-2.5c0-0.276-0.034-0.52-0.102-0.73s-0.148-0.387-0.242-0.527s-0.235-0.259-0.426-0.355
				s-0.363-0.171-0.52-0.223s-0.379-0.09-0.668-0.113s-0.53-0.038-0.723-0.043s-0.466-0.008-0.82-0.008V162.812z M137.569,169.312h1
				c0.864,0,1.497-0.199,1.898-0.598s0.602-1.032,0.602-1.902s-0.2-1.504-0.602-1.902s-1.034-0.598-1.898-0.598h-1V169.312z"/>
			<path fill="#FFFF6F" d="M144.522,170.812v-14h5.5v1.5h-3.5v4.5h2.5v1.5h-2.5v5h3.5v1.5H144.522z"/>
			<path fill="#FFFF6F" d="M150.374,170.812l3-14h2l3,14h-2l-0.75-3.5h-2.5l-0.75,3.5H150.374z M153.374,165.812h2l-1-6
				L153.374,165.812z"/>
			<path fill="#FFFF6F" d="M164.96,170.718c-0.464,0.161-1,0.242-1.609,0.242s-1.146-0.081-1.609-0.242s-0.845-0.387-1.145-0.676
				s-0.543-0.652-0.73-1.09s-0.32-0.91-0.398-1.418s-0.117-1.082-0.117-1.723v-9h2v9c0,0.433,0.009,0.794,0.027,1.086
				s0.066,0.603,0.145,0.934s0.187,0.595,0.324,0.793s0.333,0.362,0.586,0.492s0.559,0.195,0.918,0.195s0.665-0.065,0.918-0.195
				s0.448-0.294,0.586-0.492s0.246-0.462,0.324-0.793s0.126-0.642,0.145-0.934s0.027-0.653,0.027-1.086v-9h2v9
				c0,0.641-0.039,1.215-0.117,1.723s-0.211,0.98-0.398,1.418s-0.431,0.801-0.73,1.09S165.424,170.557,164.96,170.718z"/>
			<path fill="#FFFF6F" d="M170.733,170.812v-12.219h-2.5v-1.781h7v1.781h-2.5v12.219H170.733z"/>
			<path fill="#FFFF6F" d="M176.319,170.812v-14h2v14H176.319z"/>
			<path fill="#FFFF6F" d="M180.46,170.812v-14h5.5v1.5h-3.5v4.5h2.5v1.5h-2.5v6.5H180.46z"/>
			<path fill="#FFFF6F" d="M192.374,170.718c-0.464,0.161-1,0.242-1.609,0.242s-1.146-0.081-1.609-0.242s-0.845-0.387-1.145-0.676
				s-0.543-0.652-0.73-1.09s-0.32-0.91-0.398-1.418s-0.117-1.082-0.117-1.723v-9h2v9c0,0.433,0.009,0.794,0.027,1.086
				s0.066,0.603,0.145,0.934s0.187,0.595,0.324,0.793s0.333,0.362,0.586,0.492s0.559,0.195,0.918,0.195s0.665-0.065,0.918-0.195
				s0.448-0.294,0.586-0.492s0.246-0.462,0.324-0.793s0.126-0.642,0.145-0.934s0.027-0.653,0.027-1.086v-9h2v9
				c0,0.641-0.039,1.215-0.117,1.723s-0.211,0.98-0.398,1.418s-0.431,0.801-0.73,1.09S192.838,170.557,192.374,170.718z"/>
			<path fill="#FFFF6F" d="M196.655,170.812v-14h2v12.5h3.5v1.5H196.655z"/>
		</g>
		<g>
			<path fill="#FFFF6F" d="M29.273,171.74v-16.625h2.375v16.625H29.273z"/>
			<path fill="#FFFF6F" d="M34.19,171.74v-16.625h1.781l4.156,10.279v-10.279h2.375v16.625h-1.688l-4.249-11.059v11.059H34.19z"/>
			<path fill="#FFFF6F" d="M46.649,171.74v-14.51h-2.969v-2.115h8.312v2.115h-2.969v14.51H46.649z"/>
			<path fill="#FFFF6F" d="M59.703,171.629c-0.551,0.191-1.188,0.287-1.911,0.287s-1.36-0.096-1.911-0.287s-1.003-0.459-1.359-0.803
				c-0.355-0.344-0.645-0.775-0.867-1.295s-0.38-1.08-0.473-1.684s-0.139-1.285-0.139-2.045v-10.688h2.375v10.688
				c0,0.514,0.011,0.943,0.032,1.289c0.022,0.346,0.079,0.717,0.172,1.109s0.222,0.705,0.385,0.941
				c0.164,0.234,0.396,0.43,0.696,0.584c0.3,0.154,0.663,0.232,1.09,0.232s0.79-0.078,1.09-0.232s0.532-0.35,0.696-0.584
				c0.163-0.236,0.292-0.549,0.385-0.941s0.149-0.764,0.172-1.109c0.021-0.346,0.032-0.775,0.032-1.289v-10.688h2.375v10.688
				c0,0.76-0.046,1.441-0.14,2.045c-0.092,0.604-0.25,1.164-0.473,1.684s-0.512,0.951-0.867,1.295
				C60.706,171.17,60.253,171.438,59.703,171.629z"/>
			<path fill="#FFFF6F" d="M64.898,171.74v-16.625h2.375v16.625H64.898z"/>
			<path fill="#FFFF6F" d="M71.586,171.74v-14.51h-2.969v-2.115h8.312v2.115h-2.969v14.51H71.586z"/>
			<path fill="#FFFF6F" d="M78.22,171.74v-16.625h2.375v16.625H78.22z"/>
			<path fill="#FFFF6F" d="M85.624,171.74l-3.562-16.625h2.375l1.754,8.906l0.611,4.156l0.631-4.156l1.754-8.906h2.375
				l-3.562,16.625H85.624z"/>
			<path fill="#FFFF6F" d="M92.86,171.74v-16.625h6.531v1.781h-4.156v5.344h2.969v1.781h-2.969v5.938h4.156v1.781H92.86z"/>
		</g>
	</g>
	<g>
	</g>
	<g>
	</g>
	<g>
	</g>
	<g>
	</g>
	<g>
	</g>
	<g>
	</g>
	<g>
	</g>
	<g>
	</g>
	<g>
	</g>
	<g>
	</g>
	<g>
	</g>
	<g>
	</g>
	<g>
	</g>
	<g>
	</g>
	<g>
	</g>
</g>
</svg>
